<?xml version="1.0" encoding="UTF-8" standalone="no"?>
<svg
   width="2050px"
   height="2050px"
   viewBox="0 0 2050 2050"
   version="1.1"
   id="svg30"
   xmlns="http://www.w3.org/2000/svg"
   xmlns:svg="http://www.w3.org/2000/svg">
  <defs
     id="defs4">
    <style
       id="style2">.cls-1{fill:#fff;}.cls-2{fill:#ffc500;}.cls-3{fill:#ff9f1e;}.cls-4{fill:#ffe059;}.cls-5{fill:#00305f;}.cls-6{fill:#ea1700;}</style>
  </defs>
  <title
     id="title6" />
  <g
     data-name="Layer 3"
     id="Layer_3">
    <circle
       class="cls-2"
       cx="1025"
       cy="1025"
       r="613.7"
       id="circle11" />
    <path
       class="cls-3"
       d="M1068.5,1551.8c-339,0-613.7-274.8-613.7-613.7a613.5,613.5,0,0,1,44.4-229.8A610.7,610.7,0,0,0,411.3,1025c0,338.9,274.8,613.7,613.7,613.7,257.7,0,478.3-158.8,569.2-383.9C1486.8,1432.8,1291.5,1551.8,1068.5,1551.8Z"
       id="path13" />
    <path
       class="cls-4"
       d="M1025,411.3A610.4,610.4,0,0,0,659.9,531.7a706.9,706.9,0,0,1,453.2-18.9,27.8,27.8,0,0,0-3.3,5.1c-18.2,33.9,18.9,89.1,82.7,123.3s130.4,34.6,148.6.8a38.6,38.6,0,0,0,3.7-10.5c165.2,128,271.9,328.1,272.9,553.1a613.3,613.3,0,0,0,21-159.6C1638.7,686.1,1363.9,411.3,1025,411.3Z"
       id="path15" />
    <ellipse
       class="cls-4"
       cx="1077.2"
       cy="561.6"
       rx="17.2"
       ry="25"
       transform="translate(52.2 1213.7) rotate(-60)"
       id="ellipse17" />
    <path
       class="cls-5"
       d="M1025,1356.6h0c-121.4,0-219.8-98.4-219.8-219.8v-25h0a756.7,756.7,0,0,1,439.6,0h0v25C1244.8,1258.2,1146.4,1356.6,1025,1356.6Z"
       id="path19" />
    <path
       class="cls-6"
       d="M1025,1356.6h0a219.2,219.2,0,0,0,106-27.2c-18.1-58.4-58.8-99.1-106-99.1s-87.9,40.7-106,99.1A219.2,219.2,0,0,0,1025,1356.6Z"
       id="path21" />
    <ellipse
       class="cls-5"
       cx="817.2"
       cy="868.4"
       rx="109.1"
       ry="69.2"
       transform="translate(-85.8 1647.2) rotate(-87.5)"
       id="ellipse23" />
    <circle
       class="cls-1"
       cx="855.4"
       cy="870.1"
       r="19.1"
       id="circle25" />
    <path
       class="cls-5"
       d="M1146.1,883.2a30.6,30.6,0,0,1-13.7-3.2,30,30,0,0,1-13-40.4c26.2-51.3,63.4-79.5,104.7-79.5s78.5,28.2,104.7,79.5a30,30,0,1,1-53.4,27.3c-15-29.3-34.2-46.8-51.3-46.8s-36.3,17.5-51.3,46.8A29.9,29.9,0,0,1,1146.1,883.2Z"
       id="path27" />
  </g>
</svg>
