<?xml version="1.0" encoding="iso-8859-1"?>
<!-- Generator: Adobe Illustrator 19.0.0, SVG Export Plug-In . SVG Version: 6.00 Build 0)  -->
<svg version="1.1" id="Layer_1" xmlns="http://www.w3.org/2000/svg" xmlns:xlink="http://www.w3.org/1999/xlink" x="0px" y="0px"
	 viewBox="0 0 512.001 512.001" style="enable-background:new 0 0 512.001 512.001;" xml:space="preserve">
<g>
	<g>
		<path d="M254.068,47.811c-26.501-4.048-51.265,14.154-55.314,40.655c-4.048,26.502,14.154,51.265,40.655,55.314
			c26.52,4.05,51.275-14.223,55.314-40.655C298.771,76.624,280.568,51.859,254.068,47.811z"/>
	</g>
</g>
<g>
	<g>
		<path d="M420.595,271.175H293.943c-6.703,0-12.136,5.434-12.136,12.136s5.434,12.136,12.136,12.136h126.651
			c6.703,0,12.136-5.434,12.136-12.136C432.73,276.609,427.297,271.175,420.595,271.175z"/>
	</g>
</g>
<g>
	<g>
		<path d="M342.141,156.444l7.87-50.722l12.468-80.356c1.862-12.003-6.358-23.241-18.36-25.104
			c-11.996-1.858-23.241,6.359-25.103,18.361l-14.098,90.855l-4.532,29.202l-75.151,38.962l19.049-16.399l-43.115-0.308
			c-20.478-0.146-37.147,16.458-37.091,36.928l0.342,124.905c0.047,17.038,11.802,31.933,28.597,35.786h-46.289l-31.385-159.667
			c-1.939-9.866-11.508-16.292-21.373-14.352c-9.866,1.939-16.291,11.508-14.352,21.373l34.273,174.36
			c1.639,8.339,8.822,14.39,17.262,14.667l-34.996,90.74c-2.411,6.253,0.702,13.278,6.956,15.69
			c6.251,2.413,13.278-0.701,15.69-6.956l38.354-99.447h76.621l21.929,56.861l-9.524,24.069
			c-5.363,13.552,1.276,28.887,14.828,34.25c13.557,5.363,28.888-1.279,34.25-14.828l59.907-151.388
			c6.846-17.298-5.918-36.101-24.538-36.101c-0.026,0-0.051,0-0.077,0l-60.67,0.178l1.515-96.196l-24.66,4.241l83.794-43.452
			C336.754,169.37,341.066,163.372,342.141,156.444z M267.923,360.79l23.838-0.07l-22.877,57.812l-9.101-23.598
			c9.774-0.318,17.606-8.322,17.606-18.174C277.389,369.874,273.563,363.883,267.923,360.79z"/>
	</g>
</g>
<g>
</g>
<g>
</g>
<g>
</g>
<g>
</g>
<g>
</g>
<g>
</g>
<g>
</g>
<g>
</g>
<g>
</g>
<g>
</g>
<g>
</g>
<g>
</g>
<g>
</g>
<g>
</g>
<g>
</g>
</svg>
